<?xml version="1.0" encoding="UTF-8"?>
<svg id="Layer_1" data-name="Layer 1" xmlns="http://www.w3.org/2000/svg" viewBox="0 0 671 203.16">
  <defs>
    <style>
      .cls-1 {
        fill: #fff;
      }
    </style>
  </defs>
  <g>
    <path class="cls-1" d="M132.64,12.62C123.58,4.53,112.58,0,101.58,0h-.65c-20.38.32-45.94,15.85-45.94,46.58,0,14.88,4.85,26.2,14.56,34.61,9.38,7.76,20.06,11.97,32.03,12.29h1.29c15.53,0,27.82-4.53,36.56-13.91l-12.29-11.97c-7.76,4.85-12.94,7.12-23.62,7.12h-1.94c-12.29-.65-21.67-7.76-24.26-19.73h67.61c2.26-18.76-2.59-33.97-12.29-42.38ZM77.32,38.82c3.23-12.62,13.26-19.73,24.26-19.73,11,.32,21.35,7.44,23.29,19.73h-47.55Z"/>
    <path class="cls-1" d="M122.61,129.72c-6.79,1.62-13.59,2.59-21.03,2.59s-14.23-.97-21.03-2.59l21.03,32.35,21.03-32.35Z"/>
    <path class="cls-1" d="M76.35,200.25c3.23.65,6.47,1.62,10.03,1.94,4.85.65,10.03.97,14.88.97,5.18,0,10.03-.32,14.88-.97,3.56-.32,6.79-.97,10.03-1.94,44.32-11.32,76.99-51.11,77.32-98.99,0-20.06-5.82-38.5-15.85-54.35-.65-.97-1.29-2.26-1.94-3.23-1.29-1.62-2.59-3.24-3.88-4.85-3.56-4.53-7.12-8.41-11.32-12.29-6.47-5.82-13.59-10.68-21.35-14.88,7.76,10.35,12.62,22.97,12.62,36.88,0,33.32-26.85,60.17-60.49,60.17s-59.85-26.85-59.85-59.85c0-13.91,4.85-26.85,12.62-36.88-7.76,3.88-14.88,9.06-21.35,14.88-4.21,3.88-8.09,7.76-11.32,12.29-1.29,1.62-2.26,3.23-3.56,4.85-.65.97-1.29,2.26-1.94,3.24C5.82,63.08,0,81.52,0,101.58c0,47.55,32.67,87.35,76.35,98.67ZM69.88,113.23c9.38,4.85,20.38,7.44,31.7,7.44s22-2.59,31.7-7.44c8.41-4.21,16.18-9.71,22-16.82l-18.12,27.82-30.09,46.26-5.5,8.73-5.5-8.73-30.09-46.26-18.12-27.82c6.15,6.79,13.59,12.62,22,16.82Z"/>
  </g>
  <g>
    <path class="cls-1" d="M320.1,125.39h0c-4.53-4.96-9.91-9.02-16.02-12.07-4.17-2.08-8.62-3.61-13.28-4.55l43.08-42.1-11.81-11.81-59.78,58.8V37.6h-16.79v128.32h16.79v-28.68l13.53-12.63h3.88c5.17,0,10.12,1.02,14.71,3.03,4.63,2.03,8.71,4.79,12.12,8.21,3.41,3.41,6.17,7.49,8.2,12.13,2.01,4.6,3.03,9.55,3.03,14.71v3.23h16.79v-3.23c0-7.12-1.29-13.96-3.85-20.31-2.54-6.31-6.11-12.03-10.63-16.98Z"/>
    <path class="cls-1" d="M429.97,72.11h0c-4.89-4.89-10.76-8.8-17.44-11.64-6.71-2.84-13.94-4.28-21.5-4.28s-14.98,1.44-21.61,4.29c-6.62,2.83-12.45,6.75-17.33,11.63-4.89,4.89-8.8,10.76-11.64,17.44-2.84,6.71-4.28,13.94-4.28,21.5s1.44,14.98,4.29,21.62c2.83,6.62,6.75,12.45,11.63,17.33,4.88,4.88,10.71,8.79,17.33,11.63,6.64,2.85,13.91,4.29,21.61,4.29,8.74,0,17.1-2.03,24.83-6.04,4.96-2.58,9.39-5.72,13.24-9.38v15.42h16.79v-54.87c0-7.56-1.44-14.8-4.28-21.5-2.83-6.68-6.75-12.55-11.64-17.44ZM429.1,111.05c0,5.17-1.02,10.12-3.03,14.71-2.03,4.63-4.79,8.71-8.2,12.13-3.42,3.42-7.5,6.18-12.13,8.2-9.19,4.02-20.24,4.02-29.41,0-4.63-2.03-8.71-4.79-12.13-8.2-3.42-3.42-6.18-7.5-8.2-12.13-2.01-4.58-3.03-9.53-3.03-14.71s1.02-10.12,3.03-14.71c2.03-4.63,4.79-8.71,8.2-12.13,3.41-3.41,7.49-6.17,12.13-8.2,4.59-2.01,9.54-3.03,14.71-3.03s10.11,1.02,14.71,3.03c4.64,2.04,8.72,4.8,12.13,8.21,3.41,3.41,6.17,7.49,8.2,12.12,2.01,4.59,3.03,9.55,3.03,14.71Z"/>
    <polygon class="cls-1" points="451.81 72.98 529.78 72.98 451.81 149.97 451.81 165.92 555.35 165.92 555.35 149.12 477.31 149.12 555.35 71.08 555.35 56.19 451.81 56.19 451.81 72.98"/>
    <path class="cls-1" d="M650.31,127.46c-2.93,6.21-7.13,11.37-12.68,15.21-6.16,4.28-13.39,6.45-21.49,6.45-4.79,0-9.36-.86-13.56-2.55-4.27-1.72-8.17-4.07-11.61-7-3.4-2.9-6.25-6.42-8.45-10.45-1.64-2.99-2.89-6.23-3.74-9.67h92.22v-8.4c0-7.56-1.44-14.8-4.28-21.5-2.83-6.68-6.75-12.55-11.64-17.44-4.89-4.88-10.76-8.8-17.44-11.64-6.71-2.84-13.94-4.28-21.5-4.28s-14.98,1.44-21.61,4.29c-6.62,2.83-12.45,6.75-17.33,11.63-4.89,4.89-8.8,10.76-11.64,17.44-2.84,6.71-4.28,13.94-4.28,21.5s1.44,14.98,4.29,21.62c2.83,6.62,6.75,12.45,11.63,17.33,4.88,4.88,10.71,8.79,17.33,11.63,6.64,2.85,13.91,4.29,21.61,4.29,5.98,0,11.84-1,17.4-2.97,5.51-1.96,10.61-4.64,15.17-7.97,4.58-3.34,8.64-7.4,12.06-12.06,3.42-4.65,6.1-9.81,7.99-15.32l.03-.09-18.48-.04ZM582.53,93.07h0c2.2-4.09,5.04-7.64,8.44-10.54,3.44-2.93,7.34-5.28,11.61-7,8.29-3.34,18.35-3.44,27.03,0,4.33,1.72,8.26,4.07,11.69,6.99,3.39,2.89,6.23,6.44,8.44,10.54,1.63,3.03,2.88,6.24,3.73,9.59h-74.67c.85-3.35,2.1-6.56,3.73-9.58Z"/>
  </g>
</svg>